<?xml version="1.0" standalone="no"?>
<!DOCTYPE svg PUBLIC "-//W3C//DTD SVG 20010904//EN"
 "http://www.w3.org/TR/2001/REC-SVG-20010904/DTD/svg10.dtd">
<svg version="1.0" xmlns="http://www.w3.org/2000/svg"
 width="310.000000pt" height="112.000000pt" viewBox="0 0 310.000000 112.000000"
 preserveAspectRatio="xMidYMid meet">

<g transform="translate(0.000000,112.000000) scale(0.100000,-0.100000)"
fill="#000000" stroke="none">
<path d="M1030 886 c-151 -101 -233 -201 -199 -242 6 -8 16 -14 21 -14 5 0 3
7 -6 15 -22 22 -2 71 38 92 81 42 286 188 286 204 0 24 -54 3 -140 -55z m109
38 c-18 -22 -249 -177 -255 -171 -7 7 83 79 170 136 80 52 109 64 85 35z"/>
<path d="M1636 915 c-86 -31 -198 -182 -195 -265 1 -33 2 -32 9 11 16 95 88
192 174 234 44 22 58 24 75 15 55 -29 -11 -128 -163 -244 -60 -46 -81 -57
-136 -66 -106 -19 -149 -22 -178 -15 l-27 7 22 12 c13 6 49 36 82 66 32 30 80
70 105 88 25 18 58 51 73 73 24 37 25 41 10 56 -15 15 -20 15 -62 -1 -25 -10
-72 -36 -105 -58 -68 -45 -196 -161 -212 -192 -6 -12 21 10 60 49 39 38 76 71
82 73 27 9 3 -23 -62 -83 -76 -71 -48 -58 35 15 37 33 47 48 43 64 -4 18 6 29
57 64 110 74 170 87 152 34 -8 -27 -118 -128 -123 -113 -2 6 -9 8 -14 5 -7 -4
-8 -2 -4 5 4 6 12 9 17 6 5 -4 9 1 9 9 0 20 -5 20 -24 0 -9 -8 -16 -26 -16
-38 0 -26 -67 -94 -121 -121 -31 -17 -35 -16 -86 5 -30 12 -56 21 -58 19 -6
-7 29 -44 43 -45 6 -1 35 -2 64 -3 28 0 49 -3 47 -5 -2 -2 -75 -16 -162 -31
-87 -14 -171 -31 -185 -37 -39 -17 -72 -49 -72 -69 0 -40 107 -61 195 -39 17
4 -7 5 -52 2 -66 -4 -87 -2 -108 12 -14 9 -25 23 -25 31 0 21 55 52 114 65 60
13 251 46 319 55 49 7 127 -2 127 -13 0 -9 -82 -46 -205 -93 -55 -21 -95 -38
-88 -39 18 0 164 55 245 94 l73 35 57 -23 56 -23 -18 26 c-26 37 -35 71 -18
71 24 1 201 154 235 204 39 56 42 89 11 110 -26 19 -23 19 -72 1z m-200 -333
c6 -4 14 -17 18 -29 7 -20 5 -21 -23 -10 -23 8 -28 14 -19 24 13 15 -3 18 -19
2 -6 -6 -22 -7 -39 -3 l-29 8 25 7 c34 10 73 10 86 1z"/>
<path d="M1123 728 c-68 -29 -73 -29 -89 -13 -14 13 -30 16 -75 13 -104 -8
-132 -70 -30 -66 l46 1 -44 6 c-25 3 -46 11 -48 17 -8 25 104 45 136 25 18
-12 5 -31 -22 -31 -16 0 -18 -3 -8 -9 14 -9 -17 -22 -89 -37 -19 -4 -29 -9
-23 -11 19 -7 124 26 155 48 15 11 60 33 99 50 40 16 75 32 78 34 11 11 -19 2
-86 -27z"/>
<path d="M1767 733 c-11 -11 -8 -48 5 -61 10 -10 8 -16 -7 -32 -20 -20 -92
-34 -97 -19 -5 13 -122 13 -146 0 -24 -13 -30 -41 -8 -41 7 0 25 9 39 20 15
12 40 20 64 20 34 -1 36 -2 20 -14 -16 -13 -14 -14 22 -9 27 4 41 2 41 -6 0
-19 14 -13 56 23 37 31 42 33 64 20 14 -7 19 -13 12 -14 -7 0 -10 -5 -7 -10 4
-6 3 -10 -2 -9 -17 3 -33 -1 -33 -9 0 -4 19 -8 43 -9 27 -1 35 1 23 6 -18 7
-18 8 -2 14 9 4 14 11 11 17 -3 5 4 11 17 11 13 1 1 5 -25 9 -59 10 -60 11
-48 42 14 37 -17 76 -42 51z m33 -33 c0 -25 -18 -36 -26 -16 -8 21 3 49 16 41
5 -3 10 -15 10 -25z m-260 -100 c-24 -15 -37 -11 -16 5 11 8 22 12 25 9 3 -3
-1 -9 -9 -14z"/>
<path d="M660 630 c-85 -43 -152 -79 -148 -79 11 -1 272 126 293 143 11 8 18
15 15 15 -3 0 -75 -36 -160 -79z"/>
<path d="M970 615 c-8 -9 -8 -15 -2 -15 12 0 26 19 19 26 -2 2 -10 -2 -17 -11z"/>
<path d="M1276 615 c-11 -8 -15 -15 -10 -15 6 0 19 7 30 15 10 8 15 14 9 14
-5 0 -19 -6 -29 -14z"/>
<path d="M1998 605 c-3 -3 -32 -9 -64 -14 -43 -6 -50 -9 -24 -10 19 0 49 3 67
8 26 7 31 7 26 -5 -6 -17 9 -18 95 -4 53 9 65 8 78 -5 12 -12 38 -15 127 -13
l112 2 -105 3 c-58 2 -109 8 -114 13 -7 7 -6 10 2 10 7 0 12 4 12 10 0 10 -53
5 -125 -11 -55 -12 -59 -11 -45 6 10 13 9 15 -12 15 -14 0 -27 -2 -30 -5z"/>
<path d="M2430 573 c0 -5 35 -7 77 -5 137 5 151 9 36 10 -62 1 -113 -1 -113
-5z"/>
<path d="M1028 413 c7 -3 16 -2 19 1 4 3 -2 6 -13 5 -11 0 -14 -3 -6 -6z"/>
</g>
</svg>
